<svg width="581" height="365" viewBox="0 0 581 365" fill="none" xmlns="http://www.w3.org/2000/svg">
<path opacity="0.6" d="M7 7C7.97248 16.7248 16.9965 32.2652 21 41C31.8428 64.657 46.1117 85.4397 61.2709 106.531C109.783 174.026 183.449 220.83 259.309 251.117C340.053 283.354 439.833 304.964 523.7 270.572C580.516 247.274 581.059 182.714 563.636 132.745C547.072 85.2421 509.33 39.503 457.756 28.7084C432.144 23.3478 407.874 22.9512 384.746 35.6714C360.329 49.1011 335.96 65.2121 314.808 83.3889C236.157 150.98 182.101 252.981 182.101 357.201" stroke="white" stroke-width="13" stroke-linecap="round"/>
<path opacity="0.6" d="M139.506 307.05C139.676 308.752 141.241 310.738 142.144 312.072C145.122 316.474 147.83 321.091 151.15 325.249C154.912 329.635 173.07 349.541 177.104 353.68C177.456 354.041 181.868 358.038 181.955 357.791C193.967 348.904 221.927 327.299 232.909 317.129" stroke="white" stroke-width="13" stroke-linecap="round"/>
</svg>
